<svg width="150" height="115" viewBox="0 0 150 115" fill="none" xmlns="http://www.w3.org/2000/svg">
<g clip-path="url(#clip0_91_515)">
<path d="M63.406 52.9369L72.8612 62.5979C69.9072 69.1197 64.7028 74.5738 57.5399 76.0546C51.4525 75.8307 44.9285 76.5199 38.8926 76.1126C29.9885 75.5102 22.3355 67.8339 21.6337 58.8331C22.1295 49.23 21.0024 38.9994 21.6337 29.4716C21.8587 26.0929 23.1365 22.8282 25.3582 20.3067C30.492 15.4762 35.0651 9.38495 40.2314 4.66641C47.236 -1.73374 56.1096 -1.52137 62.8396 5.14908C71.3432 13.5784 79.9421 22.6988 88.2035 31.4061C91.1194 34.4797 94.4301 36.756 93.9209 41.4514C93.6558 43.8898 90.2765 46.5039 87.9442 45.1853C76.0765 34.1457 65.4484 21.662 53.4893 10.7557C49.2174 9.32897 46.498 12.5204 43.8567 15.2889C40.6051 18.6965 36.997 22.5386 33.94 26.1006C32.7213 27.5216 31.724 28.4367 31.5523 30.4408C32.1359 39.3624 30.7971 49.2551 31.5523 58.0628C31.9433 62.6269 36.0892 65.9244 40.4202 66.2681C44.2781 66.5751 50.6687 66.5442 54.5477 66.2681C57.803 66.0364 60.4901 64.4398 62.1035 61.5611C63.7168 58.6825 63.4956 55.9989 63.4079 52.9388L63.406 52.9369Z" fill="#2563EB"/>
<path d="M87.6238 22.2374L78.4966 12.5204C81.5097 7.24772 85.8006 2.29749 91.9719 1.05608C96.4821 0.148664 108.439 0.196931 112.953 1.13137C120.837 2.76278 126.812 10.2016 127.3 18.2699C128.097 31.4254 126.679 45.3976 127.3 58.6381C126.516 67.8976 118.806 75.4735 109.66 76.1106C100.514 76.7478 95.4942 76.3385 88.6689 69.7375C82.2344 63.5131 74.9571 56.1765 68.9308 49.5621C68.4979 49.0871 66.6633 47.1507 66.5069 46.8032C65.8203 45.2664 67.0065 44.0829 67.9753 42.9882C69.6478 41.1019 72.2223 38.76 74.6596 40.8644L97.4394 63.9455C100.355 66.6272 105.121 66.579 108.861 66.2334C113.253 65.826 116.745 62.708 117.378 58.252V19.046C115.742 7.40024 102.861 11.8987 94.7924 11.0608C91.3578 11.3755 87.62 15.6229 87.62 19.0518V22.2374H87.6238Z" fill="#2563EB"/>
<path d="M55.9665 35.1728V51.68C55.9665 51.9117 55.0397 52.4851 54.7155 52.5372C53.7467 52.6936 48.7826 52.7168 47.8653 52.543C47.5869 52.4909 47.2055 52.2167 47.1006 51.9658C47.0624 51.8731 46.8107 50.595 46.8107 50.5216V35.1728C45.7294 35.8003 42.5103 39.9879 41.5663 39.986C41.1849 39.986 40.3744 39.2987 40.0464 39.0284C39.5925 38.6538 37.0694 36.2656 36.9741 35.9528C36.9073 35.7366 36.8425 35.5377 36.9226 35.3118L51.0177 20.6002L51.4754 20.4901L65.4103 34.5898C65.7326 35.028 66.1865 35.5686 65.9805 36.1247C65.8527 36.4664 62.9006 39.6114 62.5554 39.8161C62.3437 39.9416 62.2465 40.013 61.9776 40.0149C60.7876 40.0265 57.7 36.3602 56.5386 35.4605C56.346 35.3118 56.2983 35.0879 55.9646 35.1728H55.9665Z" fill="#2563EB"/>
<path d="M17.2532 96.9541H13.1531C12.0107 94.9848 10.5194 94.0368 8.1966 94.255C5.29596 94.5272 3.90189 97.6163 6.59657 99.1531C10.3039 101.267 16.8318 100.165 17.7395 106.02C19.4063 116.765 2.60318 117.894 0.219356 109.278C0.0973042 108.835 -0.188755 107.866 0.185029 107.575H4.38057C5.54006 109.513 6.97608 110.708 9.34274 110.677C13.441 110.625 14.9133 106.455 10.5385 104.816C6.60992 103.345 0.917341 103.596 0.47681 97.8209C-0.3089 87.5344 16.8108 87.1521 17.2551 96.9541H17.2532Z" fill="#2563EB"/>
<path d="M85.5261 98.3055H80.5677C78.3708 92.8881 71.4538 93.5021 69.0548 98.5237C65.0118 106.988 75.2184 115.701 80.8537 106.8H85.7168C82.1372 118.471 66.5203 117.243 63.8427 105.488C61.9948 97.3769 67.6988 89.2005 76.2749 90.0056C80.4647 90.3995 84.7556 94.06 85.528 98.3036L85.5261 98.3055Z" fill="#2563EB"/>
<path d="M93.1543 90.1967V98.7882C93.1543 98.8326 92.792 99.0469 93.0609 99.0797H93.3412C95.0786 95.9598 100.207 95.5215 102.688 98.0198C103.397 98.7341 104.597 101.306 104.597 102.265V114.235C104.454 114.432 104.431 114.444 104.208 114.446C103.002 114.45 101.639 114.116 100.409 114.446L100.02 114.235V103.231C100.02 102.731 99.0224 101.507 98.5914 101.202C97.0295 100.099 94.8459 100.568 93.7265 102.072C93.6197 102.215 93.1543 102.982 93.1543 103.038V114.235C93.0113 114.432 92.9884 114.444 92.7653 114.446C91.56 114.45 90.1965 114.116 88.9664 114.446L88.5774 114.235V90.1987H93.1543V90.1967Z" fill="#2563EB"/>
<path d="M25.0722 90.1968V102.746L26.3671 102.702L30.8887 96.566H36.3239L30.0439 104.551C31.1004 105.793 32.2504 106.976 33.2668 108.252C34.4645 109.754 36.2991 111.903 37.2774 113.459C37.4471 113.73 37.5368 114.037 37.6588 114.328H32.2237L26.7885 107.281L25.0722 107.185V114.328H20.4952V90.1948H25.0722V90.1968Z" fill="#2563EB"/>
<path d="M107.648 102.746C107.572 94.7763 120.383 93.6256 122.47 100.58C123.03 102.449 122.876 110.386 122.721 112.697C122.695 113.087 122.672 113.849 122.43 114.139C122.212 114.398 119.052 114.438 118.644 114.299C117.86 114.033 118.282 112.216 118.041 112.204C114.633 116.797 106.488 114.954 107.08 108.443C107.289 106.142 109.643 103.711 111.939 103.711H118.137C118.06 102.445 118.533 101.368 117.319 100.582C115.28 99.2612 112.147 100.196 111.653 102.746H107.648ZM118.327 107.187H113.846C113.209 107.187 111.859 107.746 111.7 108.492C111.05 111.581 117.034 111.484 118.045 108.544C118.192 108.113 118.081 107.607 118.327 107.189V107.187Z" fill="#2563EB"/>
<path d="M137.875 96.5679C138.809 96.7707 138.8 98.1356 138.735 98.8847C141.771 95.2763 148.186 95.5041 149.661 100.468C150.105 101.962 149.95 102.968 149.975 104.379C150.036 107.758 149.948 111.146 149.981 114.523C149.912 114.62 149.737 114.33 149.697 114.33H145.597V103.229C145.597 103.144 145.103 102.076 144.994 101.908C143.93 100.259 141.214 100.192 139.811 101.424C139.498 101.698 138.733 102.889 138.733 103.229V114.33H134.347V96.5679C135.371 96.7185 136.931 96.3633 137.875 96.5679Z" fill="#2563EB"/>
<path d="M92.5822 50.6201C95.7746 49.8555 99.0319 46.78 99.4266 43.3589C99.5792 42.0286 99.5544 39.5265 99.4438 38.1692C99.0529 33.3291 95.2788 30.5566 92.3915 27.1606C93.366 27.3652 94.1345 26.8034 94.9794 26.6953C98.3835 26.2628 102.179 29.6415 103.74 32.468C107.368 39.0342 105.892 54.4505 95.622 52.6569C94.6056 52.4793 92.9369 51.6047 92.5803 50.6201H92.5822Z" fill="#2563EB"/>
<path d="M60.5435 90.1967H55.9666V114.44H60.5435V90.1967Z" fill="#2563EB"/>
<path d="M51.9617 90.1967H47.5754V114.523H51.9617V90.1967Z" fill="#2563EB"/>
<path d="M130.731 96.5679H126.146V114.523H130.731V96.5679Z" fill="#2563EB"/>
<path d="M43.6794 96.5679H39.1844V114.523H43.6794V96.5679Z" fill="#2563EB"/>
<path d="M41.4652 94.8612C42.9082 94.8612 44.0779 93.677 44.0779 92.2162C44.0779 90.7554 42.9082 89.5712 41.4652 89.5712C40.0223 89.5712 38.8525 90.7554 38.8525 92.2162C38.8525 93.677 40.0223 94.8612 41.4652 94.8612Z" fill="#2563EB"/>
<path d="M126.593 90.2624C127.192 89.6562 128.103 89.5133 128.917 89.6137C132.18 90.0133 131.526 95.6972 127.617 94.7898C125.845 94.3786 125.376 91.4961 126.593 90.2624Z" fill="#2563EB"/>
</g>
<defs>
<clipPath id="clip0_91_515">
<rect width="150" height="115" fill="white"/>
</clipPath>
</defs>
</svg>
